<svg width="152" height="144" viewBox="0 0 152 144" fill="none" xmlns="http://www.w3.org/2000/svg">
<path d="M0.333333 3C0.333333 4.47276 1.52724 5.66667 3 5.66667C4.47276 5.66667 5.66667 4.47276 5.66667 3C5.66667 1.52724 4.47276 0.333333 3 0.333333C1.52724 0.333333 0.333333 1.52724 0.333333 3ZM151.365 140.086C151.554 139.884 151.543 139.567 151.342 139.379L148.055 136.305C147.853 136.117 147.537 136.127 147.348 136.329C147.159 136.531 147.17 136.847 147.372 137.036L150.293 139.768L147.561 142.689C147.373 142.891 147.383 143.207 147.585 143.396C147.787 143.585 148.103 143.574 148.292 143.372L151.365 140.086ZM2.5034 3.05822C8.87659 57.4194 19.8522 92.6434 42.3825 113.81C64.9259 134.99 98.9197 141.99 151.017 140.244L150.983 139.244C98.9355 140.989 65.3016 133.97 43.0672 113.082C20.8199 92.1804 9.8679 57.2869 3.4966 2.94178L2.5034 3.05822Z" fill="black"/>
</svg>
