<svg width="110" height="140" viewBox="0 0 110 140" fill="none" xmlns="http://www.w3.org/2000/svg">
<path d="M0.333333 3.39788C0.333333 4.87064 1.52724 6.06454 3 6.06454C4.47276 6.06454 5.66667 4.87064 5.66667 3.39788C5.66667 1.92512 4.47276 0.731209 3 0.731209C1.52724 0.731209 0.333333 1.92512 0.333333 3.39788ZM105.692 139.394C105.909 139.564 106.224 139.526 106.394 139.308L109.167 135.765C109.338 135.547 109.299 135.233 109.082 135.063C108.864 134.893 108.55 134.931 108.38 135.148L105.914 138.298L102.765 135.833C102.547 135.662 102.233 135.701 102.063 135.918C101.893 136.136 101.931 136.45 102.148 136.62L105.692 139.394ZM3.03104 3.89691C35.1969 1.89645 57.2451 7.12965 73.04 27.0081C88.8888 46.9544 98.5162 81.7236 105.504 139.06L106.496 138.94C99.5102 81.6135 89.8663 46.5772 73.8229 26.386C57.7256 6.12697 35.2607 0.89055 2.96896 2.89884L3.03104 3.89691Z" fill="black"/>
</svg>
