<svg width="60" height="60" viewBox="0 0 60 60" fill="none" xmlns="http://www.w3.org/2000/svg">
<rect width="60" height="60" rx="30" fill="#F2F2F2"/>
<path d="M33.6306 26.0211L32.8549 28.3334C32.5662 29.2123 32.0751 30.0111 31.421 30.6654C30.7669 31.3196 29.9683 31.8111 29.0895 32.1001L26.7499 32.8783C26.671 32.9039 26.6023 32.9539 26.5536 33.021C26.5048 33.0881 26.4786 33.1689 26.4786 33.2518C26.4786 33.3348 26.5048 33.4156 26.5536 33.4827C26.6023 33.5498 26.671 33.5997 26.7499 33.6254L29.0895 34.4036C29.9602 34.6928 30.7513 35.1814 31.3998 35.8304C32.0484 36.4794 32.5364 37.2708 32.8251 38.1417L33.6021 40.4825C33.6286 40.5603 33.6789 40.6279 33.7457 40.6757C33.8126 40.7236 33.8928 40.7493 33.975 40.7493C34.0572 40.7493 34.1374 40.7236 34.2043 40.6757C34.2711 40.6279 34.3214 40.5603 34.3479 40.4825L35.1547 38.1703C35.4443 37.2999 35.9326 36.5089 36.581 35.86C37.2294 35.2112 38.0201 34.7223 38.8904 34.4322L41.2287 33.6552C41.3076 33.6296 41.3763 33.5796 41.425 33.5125C41.4738 33.4454 41.5 33.3646 41.5 33.2817C41.5 33.1987 41.4738 33.1179 41.425 33.0508C41.3763 32.9837 41.3076 32.9338 41.2287 32.9081L38.9189 32.1001C38.0399 31.8118 37.241 31.3206 36.5871 30.6662C35.9331 30.0118 35.4424 29.2126 35.1547 28.3334L34.3778 25.9913C34.3482 25.9144 34.2954 25.8487 34.2265 25.8034C34.1577 25.7581 34.0764 25.7355 33.9941 25.7388C33.9118 25.7421 33.8326 25.7711 33.7676 25.8217C33.7027 25.8724 33.6539 25.9421 33.6306 26.0211ZM23.6097 19.4561L23.0553 21.1083C22.8486 21.7358 22.4977 22.3062 22.0308 22.7736C21.5638 23.241 20.9937 23.5924 20.3664 23.7997L18.6944 24.3541C18.6379 24.3724 18.5886 24.4081 18.5537 24.4561C18.5188 24.5041 18.5 24.562 18.5 24.6214C18.5 24.6807 18.5188 24.7386 18.5537 24.7866C18.5886 24.8346 18.6379 24.8703 18.6944 24.8886L20.3664 25.4443C20.988 25.6514 21.5528 26.0005 22.0159 26.4641C22.479 26.9276 22.8277 27.4927 23.0342 28.1146L23.5886 29.7866C23.6069 29.8431 23.6426 29.8923 23.6906 29.9272C23.7386 29.9621 23.7965 29.981 23.8559 29.981C23.9152 29.981 23.9731 29.9621 24.0211 29.9272C24.0691 29.8923 24.1048 29.8431 24.1231 29.7866L24.6975 28.1357C24.9048 27.5143 25.2537 26.9497 25.7167 26.4862C26.1797 26.0228 26.7441 25.6734 27.3652 25.4655L29.0373 24.9098C29.0937 24.8915 29.143 24.8558 29.1779 24.8077C29.2128 24.7597 29.2316 24.7019 29.2316 24.6425C29.2316 24.5831 29.2128 24.5253 29.1779 24.4773C29.143 24.4292 29.0937 24.3935 29.0373 24.3752L27.3864 23.7997C26.7585 23.5933 26.188 23.2422 25.7209 22.7746C25.2538 22.3071 24.9032 21.7363 24.6975 21.1083L24.143 19.435C24.1226 19.3791 24.085 19.3312 24.0356 19.2981C23.9861 19.2649 23.9275 19.2484 23.8681 19.2507C23.8086 19.2531 23.7514 19.2742 23.7048 19.3111C23.6582 19.3481 23.6244 19.3988 23.6085 19.4561" fill="black"/>
<path d="M23.6097 19.4561L23.0553 21.1083C22.8486 21.7358 22.4977 22.3062 22.0308 22.7736C21.5638 23.241 20.9937 23.5924 20.3664 23.7997L18.6944 24.3541C18.6379 24.3724 18.5886 24.4081 18.5537 24.4561C18.5188 24.5041 18.5 24.562 18.5 24.6214C18.5 24.6807 18.5188 24.7386 18.5537 24.7866C18.5886 24.8346 18.6379 24.8703 18.6944 24.8886L20.3664 25.4443C20.988 25.6514 21.5528 26.0005 22.0159 26.4641C22.479 26.9276 22.8277 27.4927 23.0342 28.1146L23.5886 29.7866C23.6069 29.8431 23.6426 29.8923 23.6906 29.9272C23.7386 29.9621 23.7965 29.981 23.8559 29.981C23.9152 29.981 23.9731 29.9621 24.0211 29.9272C24.0691 29.8923 24.1048 29.8431 24.1231 29.7866L24.6975 28.1357C24.9048 27.5143 25.2537 26.9497 25.7167 26.4862C26.1797 26.0228 26.7441 25.6734 27.3652 25.4655L29.0373 24.9098C29.0937 24.8915 29.143 24.8558 29.1779 24.8077C29.2128 24.7597 29.2316 24.7019 29.2316 24.6425C29.2316 24.5831 29.2128 24.5253 29.1779 24.4773C29.143 24.4292 29.0937 24.3935 29.0373 24.3752L27.3864 23.7997C26.7585 23.5933 26.188 23.2422 25.7209 22.7746C25.2538 22.3071 24.9032 21.7363 24.6975 21.1083L24.143 19.435C24.1226 19.3791 24.085 19.3312 24.0356 19.2981C23.9861 19.2649 23.9275 19.2484 23.8681 19.2507C23.8086 19.2531 23.7514 19.2742 23.7048 19.3111C23.6582 19.3481 23.6244 19.3988 23.6085 19.4561M33.6306 26.0211L32.8549 28.3334C32.5662 29.2123 32.0751 30.0111 31.421 30.6654C30.7669 31.3196 29.9683 31.8111 29.0895 32.1001L26.7499 32.8783C26.671 32.9039 26.6023 32.9539 26.5536 33.021C26.5048 33.0881 26.4786 33.1689 26.4786 33.2518C26.4786 33.3348 26.5048 33.4156 26.5536 33.4827C26.6023 33.5498 26.671 33.5997 26.7499 33.6254L29.0895 34.4036C29.9602 34.6928 30.7513 35.1814 31.3998 35.8304C32.0484 36.4794 32.5364 37.2708 32.8251 38.1417L33.6021 40.4825C33.6286 40.5603 33.6789 40.6279 33.7457 40.6757C33.8126 40.7236 33.8928 40.7493 33.975 40.7493C34.0572 40.7493 34.1374 40.7236 34.2043 40.6757C34.2711 40.6279 34.3214 40.5603 34.3479 40.4825L35.1547 38.1703C35.4443 37.2999 35.9326 36.5089 36.581 35.86C37.2294 35.2112 38.0201 34.7223 38.8903 34.4322L41.2287 33.6552C41.3076 33.6296 41.3763 33.5796 41.425 33.5125C41.4738 33.4454 41.5 33.3646 41.5 33.2817C41.5 33.1987 41.4738 33.1179 41.425 33.0508C41.3763 32.9837 41.3076 32.9338 41.2287 32.9081L38.9189 32.1001C38.0399 31.8118 37.241 31.3206 36.5871 30.6662C35.9331 30.0118 35.4424 29.2126 35.1547 28.3334L34.3778 25.9913C34.3482 25.9144 34.2954 25.8487 34.2265 25.8034C34.1577 25.7581 34.0764 25.7355 33.9941 25.7388C33.9118 25.7421 33.8326 25.7711 33.7676 25.8217C33.7026 25.8724 33.6539 25.9421 33.6306 26.0211Z" stroke="black" stroke-width="1.57056" stroke-linecap="round" stroke-linejoin="round"/>
</svg>
