<svg width="60" height="60" viewBox="0 0 60 60" fill="none" xmlns="http://www.w3.org/2000/svg">
<rect width="60" height="60" rx="30" fill="#7A57F6"/>
<mask id="mask0_500_50491" style="mask-type:luminance" maskUnits="userSpaceOnUse" x="17" y="16" width="26" height="28">
<path d="M25.9868 32.1734L25.7897 32.157C23.2794 31.927 22.0243 31.8136 21.6251 30.9544C21.2275 30.0968 21.9503 29.0651 23.3944 27L29.2808 18.5903C30.2353 17.2267 30.7133 16.5449 31.1257 16.6895C31.5364 16.8357 31.4806 17.6653 31.3721 19.3263L31.037 24.3353C30.9351 25.8468 30.8858 26.6025 31.3196 27.1118C31.7549 27.621 32.509 27.6884 34.0171 27.8264L34.2143 27.8428C36.7246 28.0728 37.9797 28.1862 38.3789 29.0454C38.7765 29.903 38.0536 30.9347 36.6079 32.9998L30.7232 41.4095C29.7687 42.7731 29.2906 43.4549 28.8783 43.3103C28.4676 43.1641 28.5234 42.3345 28.6318 40.6735L28.967 35.6645C29.0688 34.153 29.1181 33.3973 28.6844 32.888C28.2491 32.3788 27.495 32.3114 25.9868 32.1734Z" fill="white"/>
<path d="M40.6786 16.856L38.2143 20.1417H41.5L39.0357 23.4274M20.9643 36.5702L18.5 39.856H21.7857L19.3214 43.1417" stroke="#C0C0C0" stroke-opacity="0.25" stroke-width="1.37336" stroke-linecap="round" stroke-linejoin="round"/>
</mask>
<g mask="url(#mask0_500_50491)">
<path d="M8.38397 8.3833H51.6175V51.6168H8.38397V8.3833Z" fill="white"/>
</g>
</svg>
