<svg width="60" height="60" viewBox="0 0 60 60" fill="none" xmlns="http://www.w3.org/2000/svg">
<rect width="60" height="60" rx="30" fill="#F2F2F2"/>
<path d="M36.3636 28.4092C38.9966 28.4092 41.1205 26.2695 41.1205 23.6365C41.1205 21.0035 38.9966 18.8638 36.3636 18.8638C33.7307 18.8638 31.5909 21.0035 31.5909 23.6365C31.5909 26.2695 33.7307 28.4092 36.3636 28.4092ZM23.6364 28.4092C26.2693 28.4092 28.3932 26.2695 28.3932 23.6365C28.3932 21.0035 26.2693 18.8638 23.6364 18.8638C21.0034 18.8638 18.8636 21.0035 18.8636 23.6365C18.8636 26.2695 21.0034 28.4092 23.6364 28.4092ZM23.6364 31.591C19.9216 31.591 12.5 33.4524 12.5 37.1592V41.1365H34.7727V37.1592C34.7727 33.4524 27.3511 31.591 23.6364 31.591ZM36.3636 31.591C35.9023 31.591 35.3852 31.6229 34.8284 31.6785C36.6739 33.007 37.9545 34.7967 37.9545 37.1592V41.1365H47.5V37.1592C47.5 33.4524 40.0784 31.591 36.3636 31.591Z" fill="black"/>
</svg>
